<?xml version="1.0" encoding="UTF-8" standalone="no"?>
<!-- Created with Inkscape (http://www.inkscape.org/) -->

<svg
   xmlns:dc="http://purl.org/dc/elements/1.1/"
   xmlns:cc="http://creativecommons.org/ns#"
   xmlns:rdf="http://www.w3.org/1999/02/22-rdf-syntax-ns#"
   xmlns:svg="http://www.w3.org/2000/svg"
   xmlns="http://www.w3.org/2000/svg"
   xmlns:sodipodi="http://sodipodi.sourceforge.net/DTD/sodipodi-0.dtd"
   xmlns:inkscape="http://www.inkscape.org/namespaces/inkscape"
   width="524.40942"
   height="372.04724"
   id="svg2"
   version="1.1"
   inkscape:version="0.48.4 r9939"
   sodipodi:docname="Logo.svg"
   inkscape:export-filename="D:\GoddamnEngine\Art\Logo.png"
   inkscape:export-xdpi="90"
   inkscape:export-ydpi="90">
  <defs
     id="defs4" />
  <sodipodi:namedview
     id="base"
     pagecolor="#000000"
     bordercolor="#666666"
     borderopacity="1.0"
     inkscape:pageopacity="1"
     inkscape:pageshadow="2"
     inkscape:zoom="1.4"
     inkscape:cx="347.65456"
     inkscape:cy="235.28945"
     inkscape:document-units="px"
     inkscape:current-layer="layer1"
     showgrid="false"
     inkscape:window-width="1920"
     inkscape:window-height="1017"
     inkscape:window-x="-8"
     inkscape:window-y="-8"
     inkscape:window-maximized="1" />
  <metadata
     id="metadata7">
    <rdf:RDF>
      <cc:Work
         rdf:about="">
        <dc:format>image/svg+xml</dc:format>
        <dc:type
           rdf:resource="http://purl.org/dc/dcmitype/StillImage" />
        <dc:title></dc:title>
      </cc:Work>
    </rdf:RDF>
  </metadata>
  <g
     inkscape:label="Layer 1"
     inkscape:groupmode="layer"
     id="layer1"
     transform="translate(0,-680.31477)">
    <g
       transform="matrix(1,0,0,1.6948086,-78.791898,250.7986)"
       style="font-size:72px;font-style:normal;font-variant:normal;font-weight:normal;font-stretch:normal;text-align:center;line-height:125%;letter-spacing:0px;word-spacing:0px;text-anchor:middle;fill:#ffffff;fill-opacity:1;stroke:none;font-family:Eternal Knight;-inkscape-font-specification:Eternal Knight"
       id="flowRoot2985">
      <path
         d="m 208.06228,381.60764 -8.09967,0 c -1.56009,0 -3.13525,-0.54016 -4.7255,-1.62048 -1.59029,-1.08032 -2.98509,-2.22015 -4.18441,-3.4195 l -0.0906,-0.0906 c -0.42116,-0.35888 -0.76677,-0.71868 -1.03684,-1.0794 -0.27009,-0.36071 -0.52507,-0.6903 -0.76492,-0.98877 -0.17946,-0.24169 -0.56902,-0.78231 -1.16867,-1.62186 -0.59969,-0.83953 -1.31975,-1.82921 -2.16019,-2.96905 -0.84046,-1.13982 -1.75553,-2.40005 -2.74521,-3.78067 -0.98969,-1.3806 -1.94962,-2.73055 -2.87979,-4.04984 -0.93018,-1.31925 -1.80039,-2.54926 -2.61062,-3.69003 -0.81025,-1.14073 -1.45524,-2.0709 -1.93497,-2.79053 -0.47974,-0.65915 -0.76447,-1.19886 -0.85419,-1.61911 -0.0897,-0.4202 -0.13458,-0.90039 -0.13458,-1.44058 l 0,-1.43921 c 0,-0.84042 0.20965,-2.07043 0.62897,-3.69003 0.41931,-1.61954 0.94436,-3.38925 1.57516,-5.30915 0.6308,-1.91982 1.33621,-3.88499 2.11624,-5.89554 0.78003,-2.01045 1.54495,-3.82548 2.29477,-5.44509 0.74981,-1.61952 1.42455,-2.96946 2.02423,-4.04984 0.59966,-1.08027 1.04964,-1.65064 1.34995,-1.71112 l 35.63965,0 1.17004,0.45044 c 0.30024,0.30035 0.54057,0.6304 0.72098,0.99014 0.18031,0.35986 0.27049,0.60018 0.27054,0.72098 -0.0605,0.8991 -0.25594,2.38363 -0.5864,4.45358 -0.33055,2.07006 -0.69081,4.2751 -1.08078,6.61515 -0.39006,2.34012 -0.76497,4.54517 -1.12472,6.61514 -0.35985,2.07004 -0.62948,3.52527 -0.80887,4.36569 l -0.71961,-0.54108 -8.28094,-14.85077 c -0.36076,-0.53828 -0.78098,-1.07752 -1.26068,-1.61773 -0.47977,-0.54011 -1.01993,-1.11049 -1.62049,-1.71112 l -8.09967,0 -1.0794,0.0906 c -1.6791,3.83977 -3.08901,7.40941 -4.22974,10.70893 -1.14077,3.2996 -2.01052,6.56986 -2.60925,9.81079 0.59873,1.25979 1.3632,2.62484 2.29339,4.09515 0.93016,1.47036 1.90519,2.94024 2.92511,4.40964 1.01988,1.46944 2.05488,2.90911 3.10501,4.319 1.05009,1.40993 1.99537,2.65504 2.83585,3.73535 l 7.02026,-10.34912 c -3e-5,2e-5 0.0151,-0.0448 0.0453,-0.13458 0.0302,-0.0897 0.0453,-0.19498 0.0453,-0.31586 -0.0605,-0.0604 -0.21061,-0.18033 -0.45044,-0.3598 -0.2399,-0.17942 -0.50998,-0.35932 -0.81024,-0.5397 -0.30033,-0.18034 -0.45047,-0.27052 -0.45044,-0.27054 -0.11905,-0.119 -0.68897,-0.44858 -1.70975,-0.98877 -1.02084,-0.54014 -2.0412,-1.32016 -3.06106,-2.34009 l 25.02136,0 -1.17004,2.06818 c -3.05975,5.46022 -6.10479,10.56062 -9.13514,15.3012 -3.03043,4.74061 -6.1652,8.73048 -9.40429,11.96961 z"
         style="font-size:90px;fill:#ffffff"
         id="path3002"
         inkscape:connector-curvature="0" />
      <path
         d="m 270.0607,324.02509 c 0.23873,4e-5 0.57418,0.42009 1.00635,1.26013 0.43208,0.84013 0.88838,1.92009 1.3689,3.23987 0.48042,1.31986 0.97261,2.78397 1.47656,4.39233 0.50386,1.60843 0.9477,3.18058 1.33154,4.71643 0.38374,1.53592 0.70747,2.96378 0.97119,4.28357 0.26363,1.31985 0.39546,2.31594 0.39551,2.98828 l 0,1.15137 c -5e-5,0.43215 -0.0359,0.81631 -0.10767,1.15247 -0.0718,0.3362 -0.2996,0.76796 -0.68335,1.29528 -0.38383,0.57571 -0.89982,1.31985 -1.54797,2.23243 -0.64824,0.91261 -1.3444,1.89662 -2.0885,2.95202 -0.74418,1.05544 -1.51213,2.13539 -2.30383,3.23987 -0.79179,1.1045 -1.52385,2.11268 -2.19617,3.02454 -0.6724,0.91187 -1.24845,1.70362 -1.72815,2.37524 -0.47977,0.67164 -0.79142,1.10413 -0.93494,1.29749 -0.43216,0.52734 -0.97232,1.1272 -1.62048,1.79956 -0.64823,0.67236 -1.35611,1.29639 -2.12366,1.87207 -0.76761,0.57568 -1.57144,1.0675 -2.4115,1.47546 -0.84011,0.40796 -1.66812,0.61194 -2.484,0.61194 l -6.47974,0 c -0.8174,0 -1.64577,-0.20398 -2.48511,-0.61194 -0.83937,-0.40796 -1.6432,-0.89978 -2.4115,-1.47546 -0.76832,-0.57568 -1.47658,-1.19971 -2.12475,-1.87207 -0.64821,-0.67236 -1.18837,-1.27222 -1.62049,-1.79956 -0.14356,-0.19336 -0.45521,-0.62585 -0.93493,-1.29749 -0.47975,-0.67162 -1.0558,-1.46337 -1.72815,-2.37524 -0.67238,-0.91186 -1.40443,-1.92004 -2.19617,-3.02454 -0.79176,-1.10448 -1.5597,-2.18443 -2.30383,-3.23987 -0.74415,-1.0554 -1.44031,-2.03941 -2.0885,-2.95202 -0.6482,-0.91258 -1.16419,-1.65672 -1.54798,-2.23243 -0.38379,-0.52732 -0.61157,-0.95908 -0.68335,-1.29528 -0.0718,-0.33616 -0.10766,-0.72032 -0.10766,-1.15247 l 0,-1.15137 c 0,-0.67234 0.13183,-1.66843 0.39551,-2.98828 0.26366,-1.31979 0.58739,-2.74765 0.97119,-4.28357 0.38378,-1.53585 0.828,-3.108 1.33264,-4.71643 0.50463,-1.60836 0.99682,-3.07247 1.47656,-4.39233 0.47973,-1.31978 0.93566,-2.39974 1.3678,-3.23987 0.43212,-0.84004 0.7683,-1.26009 1.00854,-1.26013 z m -27.36035,20.88061 10.3667,15.69507 10.51172,-15.69507 c -0.47904,-2.59274 -1.1027,-5.24484 -1.87097,-7.9563 -0.76835,-2.71139 -1.82413,-5.60372 -3.16736,-8.677 l -10.79956,0 c -1.34475,3.07328 -2.40127,5.96561 -3.16956,8.677 -0.76832,2.71146 -1.39198,5.36356 -1.87097,7.9563 z"
         id="path3004"
         inkscape:connector-curvature="0"
         style="fill:#ffffff" />
      <path
         d="m 274.87815,323.95258 40.31983,0 c 0.24019,4e-5 0.56429,0.42009 0.97229,1.26013 0.40791,0.84013 0.85176,1.92045 1.33154,3.24097 0.47969,1.32059 0.95943,2.7847 1.43921,4.39233 0.47969,1.6077 0.91182,3.19156 1.29639,4.75159 0.38447,1.56009 0.69648,3.00003 0.93603,4.31982 0.23945,1.31985 0.3592,2.31594 0.35925,2.98828 l 0,1.15137 c -5e-5,0.43215 -0.0359,0.81631 -0.10766,1.15247 -0.0718,0.3362 -0.29961,0.76796 -0.68335,1.29528 -0.38384,0.57571 -0.89983,1.31985 -1.54798,2.23243 -0.64823,0.91261 -1.3444,1.89662 -2.0885,2.95202 -0.74418,1.05544 -1.51212,2.13539 -2.30383,3.23987 -0.79179,1.1045 -1.52384,2.11268 -2.19617,3.02454 -0.6724,0.91187 -1.24845,1.70362 -1.72815,2.37524 -0.47977,0.67164 -0.79142,1.10413 -0.93493,1.29749 -0.43217,0.52734 -0.97233,1.1272 -1.62049,1.79956 -0.64822,0.67236 -1.35611,1.29639 -2.12365,1.87207 -0.76761,0.57568 -1.57145,1.0675 -2.4115,1.47546 -0.84012,0.40796 -1.66812,0.61194 -2.48401,0.61194 l -22.31983,0 0,-39.59912 c 0,-0.0966 -0.0963,-0.32479 -0.28894,-0.68445 -0.19263,-0.35958 -0.33655,-0.6119 -0.43176,-0.75696 z m 18.50318,4.39233 0,36.7207 0.7207,0 14.39868,-20.15991 c -0.47904,-2.59274 -1.10269,-5.23312 -1.87097,-7.92114 -0.76834,-2.68795 -1.82413,-5.56783 -3.16736,-8.63965 z"
         id="path3006"
         inkscape:connector-curvature="0"
         style="fill:#ffffff" />
      <path
         d="m 320.31177,323.95258 40.31982,0 c 0.24019,4e-5 0.56429,0.42009 0.97229,1.26013 0.40792,0.84013 0.85176,1.92045 1.33154,3.24097 0.4797,1.32059 0.95943,2.7847 1.43921,4.39233 0.47969,1.6077 0.91182,3.19156 1.29639,4.75159 0.38447,1.56009 0.69649,3.00003 0.93604,4.31982 0.23945,1.31985 0.3592,2.31594 0.35925,2.98828 l 0,1.15137 c -5e-5,0.43215 -0.0359,0.81631 -0.10767,1.15247 -0.0718,0.3362 -0.29961,0.76796 -0.68335,1.29528 -0.38383,0.57571 -0.89982,1.31985 -1.54797,2.23243 -0.64824,0.91261 -1.34441,1.89662 -2.0885,2.95202 -0.74419,1.05544 -1.51213,2.13539 -2.30383,3.23987 -0.79179,1.1045 -1.52385,2.11268 -2.19617,3.02454 -0.6724,0.91187 -1.24845,1.70362 -1.72815,2.37524 -0.47977,0.67164 -0.79142,1.10413 -0.93494,1.29749 -0.43216,0.52734 -0.97232,1.1272 -1.62048,1.79956 -0.64823,0.67236 -1.35611,1.29639 -2.12366,1.87207 -0.76761,0.57568 -1.57144,1.0675 -2.4115,1.47546 -0.84012,0.40796 -1.66812,0.61194 -2.48401,0.61194 l -22.31982,0 0,-39.59912 c -1e-5,-0.0966 -0.0963,-0.32479 -0.28894,-0.68445 -0.19263,-0.35958 -0.33655,-0.6119 -0.43176,-0.75696 z m 18.50317,4.39233 0,36.7207 0.7207,0 14.39869,-20.15991 c -0.47904,-2.59274 -1.1027,-5.23312 -1.87098,-7.92114 -0.76834,-2.68795 -1.82412,-5.56783 -3.16735,-8.63965 z"
         id="path3008"
         inkscape:connector-curvature="0"
         style="fill:#ffffff" />
      <path
         d="m 373.44037,324.02509 4.46484,5.04052 -8.56933,23.4712 -4.46265,0 c -10e-6,10e-6 0.0117,0.13221 0.0352,0.3966 0.0234,0.26442 0.0835,0.49257 0.18017,0.68445 0.14355,0.38381 0.33545,0.71962 0.57569,1.00745 0.24022,0.28785 0.48009,0.56398 0.7196,0.82837 0.23949,0.26441 0.44347,0.56434 0.61194,0.89978 0.16845,0.33546 0.25268,0.71925 0.25268,1.15136 l 0.0725,0.57569 -3.09594,8.42431 c -0.1919,0.43214 -0.50391,0.87635 -0.93604,1.33265 -0.43213,0.4563 -0.81665,0.80456 -1.15356,1.0448 l -0.43067,0.50317 13.17481,0 -4.53516,-4.75269 2.52026,-7.41577 1.15137,-0.7185 14.5437,0 2.30493,6.33471 c -3e-5,0.0484 0.0121,0.15638 0.0363,0.3241 0.0241,0.16773 0.0362,0.29993 0.0363,0.39661 -3e-5,0.0952 -0.0121,0.22705 -0.0363,0.3955 -0.0242,0.16847 -0.0363,0.27613 -0.0363,0.323 -0.0484,0.0967 -0.21646,0.3252 -0.50427,0.68555 -0.28787,0.36035 -0.5878,0.74451 -0.89978,1.15246 -0.31204,0.40797 -0.61197,0.77967 -0.89978,1.11512 -0.28787,0.33545 -0.48013,0.55151 -0.57678,0.64819 l -1.51172,1.51172 22.75269,0 -18.07251,-45.36035 z m 6.98291,12.24096 c -2e-5,4e-5 -0.0238,-0.0241 -0.0714,-0.0725 -0.0476,-0.0483 -0.0473,-0.0725 0.001,-0.0725 0.0952,4e-5 0.19077,0.0242 0.28674,0.0725 0.0959,0.0484 0.1439,0.0725 0.14392,0.0725 l 0.7207,1.43921 5.32837,14.47119 -12.31347,0 z"
         id="path3010"
         inkscape:connector-curvature="0"
         style="fill:#ffffff" />
      <path
         d="m 455.04818,324.02509 -17.71216,0 4.31983,5.04052 -5.25586,14.40088 -7.70362,-19.4414 -17.71215,0 4.31982,5.04052 -13.60767,37.43921 c -0.19189,0.48047 -0.42004,0.86463 -0.68444,1.15247 -0.26441,0.28784 -0.66028,0.62366 -1.18763,1.00745 l -0.43286,0.7207 12.95948,0 -4.67798,-5.5437 9.79101,-27.57569 c -2e-5,4e-5 0.0359,-0.0241 0.10767,-0.0725 0.0718,-0.0483 0.13181,-0.0725 0.18017,-0.0725 0.0967,4e-5 0.19298,0.0242 0.28895,0.0725 0.0959,0.0484 0.1439,0.0725 0.14392,0.0725 l 0.7185,1.43921 9.36035,25.20044 c -3e-5,0.0483 0.0241,0.15638 0.0725,0.3241 0.0483,0.16773 0.0725,0.29993 0.0725,0.39661 -3e-5,0.0952 -0.0121,0.22669 -0.0362,0.3944 -0.0242,0.16773 -0.0363,0.27577 -0.0363,0.3241 -0.0484,0.0967 -0.21646,0.32484 -0.50427,0.68445 -0.28787,0.35962 -0.5878,0.74341 -0.89978,1.15137 -0.31204,0.40796 -0.61197,0.78003 -0.89978,1.11621 -0.28787,0.33618 -0.48013,0.55261 -0.57678,0.64929 l -1.58423,1.43921 22.75268,0 -7.6311,-19.3689 4.823,-13.75049 c -5e-5,4e-5 0.0358,-0.0241 0.10767,-0.0725 0.0717,-0.0483 0.13178,-0.0725 0.18017,-0.0725 0.0966,4e-5 0.19295,0.0242 0.28894,0.0725 0.0959,0.0484 0.14388,0.0725 0.14392,0.0725 l 0.71851,1.43921 9.36035,25.20044 c -6e-5,0.0483 0.0241,0.15638 0.0725,0.3241 0.0483,0.16773 0.0725,0.29993 0.0725,0.39661 -6e-5,0.0952 -0.0121,0.22669 -0.0363,0.3944 -0.0242,0.16773 -0.0363,0.27577 -0.0362,0.3241 -0.0484,0.0967 -0.21649,0.32484 -0.50427,0.68445 -0.2879,0.35962 -0.58783,0.74341 -0.89978,1.15137 -0.31207,0.40796 -0.612,0.78003 -0.89978,1.11621 -0.2879,0.33618 -0.48016,0.55261 -0.57679,0.64929 l -1.58422,1.43921 22.75268,0 z"
         id="path3012"
         inkscape:connector-curvature="0"
         style="fill:#ffffff" />
      <path
         d="m 476.6906,331.20786 c -0.18128,-0.17939 -0.43671,-0.50944 -0.76629,-0.99014 -0.3296,-0.4806 -0.70451,-1.03587 -1.12473,-1.66581 -0.42023,-0.62983 -0.81025,-1.27481 -1.17004,-1.93496 -0.35981,-0.66004 -0.62943,-1.22996 -0.80887,-1.70975 l 18.63006,0 14.12842,20.25055 0,-20.25055 21.87103,0 c -0.30035,0.66107 -0.76543,1.53127 -1.39526,2.61063 -0.62994,1.07946 -1.45483,2.30947 -2.47467,3.69003 l 0,45 3.60077,5.39978 -11.25,0 -21.24207,-31.05011 0,31.05011 -21.59912,0 2.69989,-3.60077 c 0.12085,-0.17944 0.30121,-0.49438 0.54108,-0.94482 0.23986,-0.45044 0.3598,-0.73517 0.3598,-0.85419 z"
         style="font-size:90px;fill:#ffffff"
         id="path3014"
         inkscape:connector-curvature="0" />
    </g>
    <flowRoot
       xml:space="preserve"
       id="flowRoot3016"
       style="font-size:40px;font-style:normal;font-weight:normal;text-align:center;line-height:125%;letter-spacing:0px;word-spacing:0px;text-anchor:middle;fill:#ffffff;fill-opacity:1;stroke:none;font-family:Sans"
       transform="matrix(1,0,0,1.4409137,-91.515976,452.94044)"><flowRegion
         id="flowRegion3018"><rect
           id="rect3020"
           width="258.57144"
           height="107.85714"
           x="228.57143"
           y="269.50504"
           style="fill:#ffffff" /></flowRegion><flowPara
         id="flowPara3022"
         style="font-size:72px;font-style:normal;font-variant:normal;font-weight:normal;font-stretch:normal;fill:#ffffff;font-family:Eternal Knight;-inkscape-font-specification:Eternal Knight">ENGINE</flowPara></flowRoot>  </g>
</svg>
