<?xml version="1.0" encoding="utf-8"?>
<!-- Generator: Adobe Illustrator 18.0.0, SVG Export Plug-In . SVG Version: 6.00 Build 0)  -->
<!DOCTYPE svg PUBLIC "-//W3C//DTD SVG 1.1//EN" "http://www.w3.org/Graphics/SVG/1.1/DTD/svg11.dtd">
<svg version="1.1" id="Слой_1" xmlns="http://www.w3.org/2000/svg" xmlns:xlink="http://www.w3.org/1999/xlink" x="0px" y="0px"
	 viewBox="0 0 992.1 742.5" enable-background="new 0 0 992.1 742.5" xml:space="preserve">
<g>
	<g>
		<path d="M565.9,21.7h0.1c0.1,0,0.2,0,0.3,0l1.2-5.6l-8-0.1c-31.8-0.4-63.8,1.5-95.4,5.7L565.9,21.7z"/>
		<path d="M556.3,616.9l-0.4,2.2c1.2,0,2.5,0,3.7,0C558.5,618.4,557.4,617.6,556.3,616.9z"/>
	</g>
	<path d="M974,314.3c-0.1-8.8-0.7-17.5-1.8-26.2c-1-8.7-2.5-17.4-4.5-26c-1.9-8.6-4.3-17-7.1-25.4c-11.2-33.4-29.5-64.2-52.3-90.7
		c-22.9-26.6-50.2-49.2-79.9-67.4c-1.8-1.2-3.7-2.3-5.6-3.4c-1.9-1.1-3.7-2.2-5.6-3.3c-3.8-2.1-7.6-4.3-11.5-6.3
		c-7.7-4.1-15.5-7.9-23.4-11.5c-15.9-7.1-32.1-13.4-48.7-18.7C700.6,24.8,666.4,17.6,632,13.7c-17.2-2-34.5-3.2-51.8-3.7
		c-4.3-0.1-8.7-0.2-13-0.2l-12.8-0.1L529,9.5L427.1,8.8L223.3,6.8l-101.9-1L219.2,36l6.3,1.9L232,40c4.3,1.4,8.6,2.8,12.9,4.3
		c8.6,2.9,17.1,6,25.6,9.1c10.3,3.8,20.6,7.8,30.8,12c-13.9,5.8-27.6,12-41.1,18.8c-30.9,15.5-60.5,33.9-88.2,54.9
		c-27.7,21.1-53.3,45-76,71.7c-11.3,13.4-21.8,27.5-31.4,42.3C55,268,46.4,283.4,39.1,299.6c-3.7,8-7,16.3-10.1,24.6
		c-1.5,4.2-3,8.4-4.3,12.6c-1.4,4.2-2.5,8.5-3.8,12.8c-0.6,2.1-1.1,4.3-1.6,6.5c-0.5,2.2-1.1,4.3-1.5,6.5l-1.4,6.5l-1.2,6.5
		l-0.6,3.1l-0.5,3.4c-0.3,2.3-0.7,4.6-1,6.8c-0.5,4.5-1.1,8.9-1.4,13.4C9,438.2,13.2,474.9,25,509c1.4,4.3,3.1,8.5,4.7,12.7
		c1.7,4.2,3.4,8.3,5.4,12.4c1.8,4.1,3.9,8.1,5.9,12.1c2.2,4,4.2,7.9,6.6,11.8c2.2,3.9,4.7,7.7,7.1,11.5c2.5,3.7,5,7.5,7.7,11.1
		c2.6,3.7,5.4,7.2,8.1,10.7c2.8,3.5,5.6,7,8.6,10.3c23.5,27,51.5,49.8,81.7,68.1c1.9,1.2,3.8,2.3,5.7,3.4c1.9,1.1,3.8,2.2,5.7,3.3
		c3.9,2.1,7.7,4.3,11.7,6.3c7.8,4.1,15.8,7.8,23.8,11.5c16.1,7.1,32.6,13.2,49.4,18.4c33.5,10.4,68,17.1,102.7,20.6
		c17.3,1.8,34.7,2.8,52.1,3c4.3,0.1,8.7,0,13,0l12.8-0.1l25.5-0.3l50.9-0.7l50.9-0.9c34-0.7,67.9-1.4,101.9-2.2l101.9-2.6l50.9-1.3
		L771.1,714c-7.9-2.3-15.9-4.9-23.9-7.5c-8-2.6-15.9-5.4-23.8-8.2c-15.8-5.7-31.5-11.7-47-18.2c-1.6-0.7-3.1-1.3-4.7-2
		c19.2-7.5,38-15.9,56.4-25.3c15.2-7.8,30.2-16.1,44.7-25.2c14.5-9.1,28.7-18.8,42.3-29.2c27.3-20.8,52.6-44.3,75-70.6
		c11.2-13.1,21.5-27,31-41.4l3.5-5.5l1.7-2.7l1.7-2.8l3.3-5.6l3.2-5.7l1.6-2.8l1.5-2.9l3-5.8c1.9-3.9,3.9-7.8,5.6-11.7
		c3.7-7.9,6.9-15.9,9.9-24.1c1.4-4.1,2.9-8.2,4.2-12.4c1.4-4.1,2.5-8.3,3.7-12.5c2.2-8.4,4.2-16.9,5.7-25.5l0.6-3.1l0.5-3.3l1-6.6
		c0.5-4.3,1.1-8.7,1.4-13c0.4-4.4,0.6-8.7,0.8-13.1c0.1-2.2,0.1-4.4,0.1-6.6l0-3.3L974,314.3z M396.2,392.3l-7.5-0.2l-3.8-0.1
		l-1.9-0.1l-1,0l-0.9,0l-15.1-0.2l-60.3-0.7l-60.3-0.9l-4.1-0.1l-1,4.2l-21.9,87.8l-2.1,8.6l9.1,0.2l124.3,2.6l-9.6,47.9l-9.5,48.7
		c-11.2-1-22.3-2.7-33.1-5.4c-14.2-3.4-27.8-8.4-40.7-14.9c-6.4-3.2-12.6-6.9-18.6-10.9c-5.9-4-11.6-8.3-16.9-13.1
		c-5.3-4.7-10.4-9.8-15-15.2c-4.6-5.4-8.9-11.1-12.7-17.1c-7.7-12-13.8-25-18.1-38.7c-4.4-13.7-7.1-28-8.3-42.6
		c-0.6-7.3-0.8-14.6-0.8-22c0.1-7.4,0.5-14.7,1.2-22.1c0.4-3.7,0.8-7.4,1.3-11.1l0.4-2.8l0.4-2.8l0.4-2.8l0.2-1.2l0.3-1.4l0.5-2.9
		c0.2-0.9,0.3-2,0.5-2.8l1.1-5.3l1.2-5.4c0.4-1.8,0.9-3.6,1.4-5.4c3.8-14.3,8.9-28.3,15-41.8c6.2-13.5,13.5-26.6,21.6-39.2
		c8.2-12.5,17.4-24.4,27.4-35.7c10-11.3,20.8-21.8,32.3-31.6c11.5-9.8,23.7-18.7,36.5-26.8c12.8-8,26.2-15.1,40.1-21
		c13.9-5.9,28.3-10.6,43.1-13.8c12.2-2.7,24.6-4.3,37-4.7c0.4,0.2,0.7,0.5,1.1,0.7l-4.2,22.2l-5.6,29.7L408,241.7l-1.1,5.5l5.6,0
		l52-0.1l46.2,0l0,0l0,0.2l-0.1,0.7l-0.6,3.4l-1.2,6.8l-4.9,27.1l-9.8,54.3l-9.6,54.3l-0.2,0.9l-27.8-0.7l-30.2-0.8L396.2,392.3z
		 M957.8,327c-0.1,4.1-0.2,8.2-0.5,12.3c-0.2,4.1-0.7,8.2-1.1,12.3l-0.8,6.1l-0.4,3l-0.5,3.1c-1.3,8.2-3.1,16.3-5,24.3
		c-1.1,4-2.1,8-3.3,12c-1.1,4-2.5,7.9-3.8,11.8c-2.8,7.8-5.7,15.6-9.1,23.2c-1.6,3.8-3.5,7.6-5.2,11.3l-2.8,5.6l-1.4,2.8l-1.5,2.8
		l-3,5.5l-3.1,5.4l-1.6,2.7l-1.6,2.7l-3.3,5.3c-8.9,14.1-18.7,27.7-29.3,40.6c-21.3,25.9-45.6,49.2-72,70
		c-13.2,10.4-26.9,20.2-41,29.4c-14.1,9.2-28.7,17.7-43.5,25.6c-29.7,15.9-60.9,29.2-92.8,40.1c-32,10.9-64.8,19.3-98.2,25
		c-32.7,5.6-65.9,8.7-99.1,9.2l6-25l6.4-26.9l6.3-26.9l6.2-26.9l12.3-53.8l12.1-53.8l11.9-53.9l11.7-53.9l11.6-53.9l11.5-53.9
		l5.7-27l1.4-6.7l0.7-3.4l0.2-0.8l0-0.2c0.1-0.4-0.1,0.6,0.2-0.9l0.1-0.5l0.3-2c0.7-5.3,0.9-10.7,0.7-16
		c-0.4-10.7-2.6-21.3-6.2-31.2c-3.6-9.9-8.4-19.1-13.9-27.5c-5.5-8.5-11.8-16.3-18.4-23.6c-6.6-7.3-13.7-14-21-20.4
		c-14.6-12.7-30.2-23.8-46.2-33.9c-8-5.1-16.1-9.9-24.4-14.5c-8.2-4.6-16.5-9.1-24.9-13.3c-16.8-8.5-33.8-16.3-51-23.5
		c-7.5-3.2-15-6.2-22.6-9.2l116.6-1.1L529,33.8l25.5-0.2l12.7-0.1c4.2,0,8.3,0,12.5,0.1c16.7,0.3,33.3,1.2,49.8,2.9
		c33.1,3.4,65.9,9.8,97.6,19.5c15.8,4.9,31.4,10.7,46.6,17.3c7.5,3.4,15.1,6.8,22.4,10.7c3.7,1.8,7.3,3.9,10.9,5.8
		c1.8,1,3.6,2,5.4,3.1c1.8,1,3.6,2,5.3,3.1l5.3,3.2l5.2,3.3c3.5,2.2,6.9,4.6,10.3,6.9c6.7,4.8,13.4,9.7,19.7,14.9
		c6.4,5.2,12.6,10.6,18.5,16.3l2.2,2.1l2.2,2.2c1.4,1.5,2.9,2.9,4.3,4.4c2.8,3,5.7,6,8.4,9.1c21.8,24.6,39.2,53,50.1,83.9
		c2.7,7.7,5.1,15.6,7,23.5c1.9,8,3.5,16,4.5,24.2c1.1,8.1,1.8,16.3,2,24.5l0.1,3.1l0,3.1C957.8,322.9,957.8,325,957.8,327z"/>
	<path d="M852.8,309.1c-1.5-16.4-4.8-32.8-10.1-48.6c-5.3-15.8-12.6-31-21.8-44.9l-1.7-2.6l-1.9-2.5l-3.7-5l-0.9-1.3l-1-1.2l-2-2.4
		l-4-4.8l-4.3-4.6c-1.4-1.5-2.8-3.1-4.4-4.5c-3-2.8-6-5.8-9.2-8.4c-12.6-10.8-26.6-19.9-41.4-27c-14.8-7.1-30.4-12.3-46.3-15.8
		c-15.9-3.5-32.1-5.3-48.2-5.5l-8.8-0.1l-1.6,8.4c-3.7,20-7.4,40-11.1,60l-11,60l-21.9,120.1l-21.7,120.1l-10.7,60.1l-10.9,61.8
		l1.7,0.1c3.9,0.3,7.8,0.7,11.7,0.9l5.9,0.1c2,0,4,0.1,5.9,0l5.9-0.3c2-0.1,4-0.1,5.9-0.4l5.9-0.6c2-0.2,4-0.4,5.9-0.7
		c15.7-2.2,31.2-6,46.3-11.2c15.1-5.2,29.7-11.7,43.8-19.3l10.4-5.9c3.4-2.1,6.8-4.2,10.2-6.4c1.7-1,3.3-2.2,5-3.3l5-3.4
		c0.8-0.6,1.7-1.1,2.5-1.7l2.4-1.8l4.8-3.6c12.8-9.7,24.9-20.4,36.1-31.9c5.7-5.7,11-11.8,16.3-17.9c2.5-3.1,5.1-6.2,7.6-9.4
		l7.3-9.7c9.4-13.2,17.8-27.2,25-41.8l2.7-5.5l2.5-5.6c1.6-3.8,3.3-7.5,4.7-11.3l2.2-5.7l1.1-2.9l0.9-2.9l1.9-5.9l0.9-2.9l0.5-1.5
		l0.4-1.5l3.2-12.3l2.3-11.4l0.3-1.4l0.1-0.6l0-0.2l0.1-0.4l0.1-0.8l0.5-3l0.9-6c0.7-4,1-8.1,1.4-12.1l0.6-6.1l0.3-6.1
		c0.2-4.1,0.5-8.2,0.4-12.3C853.8,325.5,853.5,317.3,852.8,309.1z M823.4,333.1c0,3.6-0.4,7.3-0.7,10.9l-0.4,5.5l-0.7,5.5
		c-0.5,3.6-0.8,7.3-1.5,10.9l-0.9,5.4l-0.4,2.7l-0.1,0.7l-0.1,0.3l0,0.1l-0.3,1.3l-2.4,11.4l-2.7,10.2l-0.3,1.3l-0.4,1.3l-0.8,2.6
		l-1.6,5.2l-0.8,2.6l-0.9,2.6l-1.9,5.2c-1.2,3.5-2.6,6.8-4,10.2l-2.1,5.1l-2.3,5c-6.1,13.3-13.2,26.3-21.3,38.6
		c-8.1,12.4-17.1,24.2-26.9,35.4c-9.8,11.2-20.3,21.8-31.5,31.6c-5.6,4.9-11.4,9.6-17.3,14.2c-3,2.2-6,4.5-9,6.7l-9.3,6.4
		c-12.5,8.3-25.7,15.7-39.3,22.1c-13.7,6.4-27.9,11.7-42.5,15.8c-1.8,0.6-3.7,1-5.5,1.4l-5.6,1.3c-1.8,0.5-3.7,0.8-5.6,1.1l-5.6,1.1
		c-3.8,0.6-7.6,1.1-11.4,1.7c-1.9,0.2-3.8,0.3-5.7,0.5l-3.9,0.4l12.8-57.6l13.2-59.6l26.2-119.2l26-119.3l12.9-59.7
		c3.7-16.9,7.3-33.9,11-50.8c11.9,0.9,23.8,2.8,35.3,5.7c14.3,3.5,28.1,8.6,41,15.2c12.9,6.7,24.9,14.9,35.6,24.6
		c2.8,2.3,5.2,5,7.7,7.5c1.3,1.2,2.4,2.6,3.6,4l3.6,4l3.3,4.2l1.7,2.1l0.8,1.1l0.8,1.1l3,4.4l1.5,2.2l1.4,2.3
		c7.5,12.2,13.2,25.4,17.2,39.2c4,13.8,6.3,28.1,7,42.5C823.6,318.6,823.8,325.8,823.4,333.1z"/>
</g>
</svg>
